<svg id="Layer_1" data-name="Layer 1" xmlns="http://www.w3.org/2000/svg" width="500" height="241.07" viewBox="0 0 500 241.07"><defs><style>.cls-1{fill:#fbe601;}</style></defs><title>Catan</title><text y="-118.35"/><path class="cls-1" d="M476.91,303.51c.06-1,.17-1.95.17-2.92,0-17.15.07-34.3-.07-51.46A88.49,88.49,0,0,0,475.82,237c-.65-4.45-3.74-6.64-7.87-7.59a35.38,35.38,0,0,0-3.95-.66c-1.09-.12-1.64-.59-1.59-1.71a10.76,10.76,0,0,0,0-1.5c-.1-1.23.44-1.72,1.66-1.71q17.08,0,34.19,0c1.2,0,1.74.47,1.71,1.69-.07,2.58.23,3-2.56,3.41-5.24.76-7.78,3.49-8.3,8.78-.48,4.82-.77,9.68-.78,14.52q-.09,51.63,0,103.26c0,3.88.7,3.66-3.7,3.91-2.81.16-4.26-.9-5.68-3.21-7.12-11.67-14.42-23.24-21.68-34.83l-27.91-44.55-12.77-20.44c-.28-.46-.62-.88-.93-1.32l-.55,0a21.53,21.53,0,0,0-.23,2.24c0,19.51-.06,39,0,58.51q0,11.81.61,23.61c.15,3,.8,6.17,3.49,8a29.5,29.5,0,0,0,6,2.65,14.79,14.79,0,0,0,2.12.46c2.16.49,2.94,1.8,2.24,4a1.64,1.64,0,0,1-1.19.83,23.21,23.21,0,0,1-3,.05H392.68c-.94,0-1.92.2-2.06-1.26-.27-2.72-.09-3.21,1.68-3.61,1.3-.3,2.59-.61,3.89-.93,4-1,6-3.78,6.55-7.6a59.87,59.87,0,0,0,.73-8.66c0-31.57,0-63.14.07-94.71,0-4.58-2.33-7.5-6-9.62-1.33-.76-2.26-3.52-1.32-4.64a2.81,2.81,0,0,1,1.95-.58c4.3,0,8.61,0,12.91,0,4.47,0,8.94.07,13.41,0a3.61,3.61,0,0,1,3.51,2q10.73,17.47,21.56,34.89,12.66,20.41,25.34,40.83c.47.76,1.05,1.46,1.58,2.19Z" transform="translate(0 -118.35)"/><path class="cls-1" d="M61.76,359c-9.69-.18-19-1.84-27.71-6.28C22.67,347,14.43,338,8.58,326.75c-5-9.57-7.21-19.86-8.16-30.51a100.75,100.75,0,0,1,.78-24.72A73.74,73.74,0,0,1,9,247.77a68.79,68.79,0,0,1,19.84-23.24A53,53,0,0,1,50.37,215C61.22,212.88,72,213,82.6,216.69c.9.31,1.75.75,2.63,1.08,5.21,2,6.62,6.15,6.76,11.2.2,7.09.57,14.18.75,21.27A8.75,8.75,0,0,1,92,254.3a4.07,4.07,0,0,1-2.58,1.79,6.34,6.34,0,0,1-7.2-3.07,78.65,78.65,0,0,1-4.61-9.62c-2.45-5.91-5.18-11.63-9.51-16.43-5.25-5.82-11.95-5.16-17.33-.79-4.45,3.6-6.79,8.63-8.7,13.87-2.73,7.49-4,15.29-4.91,23.18A218.85,218.85,0,0,0,36,298.87c.46,11.06,1.93,22,5.87,32.49,2,5.2,4.3,10.18,8.16,14.3,5.58,6,14.77,6.89,20.52.72a21,21,0,0,0,4.25-6.75c2.66-7,4.94-14.21,7.37-21.33.9-2.65,1.81-5.26,3.92-7.29a5.44,5.44,0,0,1,5.43-1.28,4.19,4.19,0,0,1,3.4,4.06,95.24,95.24,0,0,1,.22,9.7c-.22,5.19-.54,10.38-1.1,15.53a60.69,60.69,0,0,1-1.85,8.47,8.91,8.91,0,0,1-4.36,5.32,40.62,40.62,0,0,1-16.59,5.39C68.11,358.59,64.93,358.76,61.76,359Z" transform="translate(0 -118.35)"/><path class="cls-1" d="M180.21,355.47c-7.26,0-14.53,0-21.79,0-1.29,0-2.29,0-2.27-1.8,0-2.57.08-2.62,2-3a66.71,66.71,0,0,0,7.77-1.78c1.93-.6,2.77-2.14,2.88-4.25.21-4-1.14-7.7-2.27-11.43-1.5-4.91-3.1-9.78-4.57-14.7a1.91,1.91,0,0,0-2.09-1.66c-9.89,0-19.78.06-29.67,0a2,2,0,0,0-2.23,1.69c-1.81,7.07-3.8,14.1-5.38,21.22-.74,3.31-.72,7.05,2.88,8.87,2.37,1.2,5.2,1.53,7.87,2.05,1.77.35,3,2.65,1.9,4.14a2.48,2.48,0,0,1-1.78.57c-4.36.05-8.71,0-13.07,0H100.81c-.8,0-1.94.23-1.81-1.07s-1-3.32,1.11-3.66c5.59-.89,7.9-5,9.43-9.58,2.9-8.78,5.53-17.66,8.25-26.5q3.88-12.63,7.73-25.28c2.58-8.48,5.11-17,7.7-25.45,2.54-8.32,5.13-16.63,7.69-24.94,1.67-5.44,3.37-10.87,5-16.34a1.89,1.89,0,0,1,2.13-1.6c1.9,0,3.8,0,5.7,0a2,2,0,0,1,2.19,1.58q5.34,17.08,10.77,34.15c3.27,10.31,6.58,20.62,9.84,30.93,3,9.36,5.85,18.74,8.81,28.1,2.47,7.81,5,15.62,7.53,23.4a51.82,51.82,0,0,0,2.42,5.7,9.63,9.63,0,0,0,7.07,5.59c1.61.34,2.66,3.15,1.65,4.47a2.34,2.34,0,0,1-1.63.49C195,355.48,187.59,355.47,180.21,355.47ZM145.12,264l-.48-.05a15.35,15.35,0,0,0-.76,1.78c-.77,2.56-1.48,5.13-2.25,7.69q-4.42,14.75-8.89,29.47c-.39,1.28-.06,1.75,1.27,1.74,7.25,0,14.51,0,21.77,0,1.5,0,1.71-.6,1.29-1.86-.76-2.33-1.47-4.67-2.18-7q-3.18-10.38-6.36-20.77C147.4,271.31,146.25,267.65,145.12,264Z" transform="translate(0 -118.35)"/><path class="cls-1" d="M357.57,355.46H335.62c-1.06,0-2,.07-2-1.5,0-2.84,0-3,1.89-3.26a56,56,0,0,0,5.93-1c5-1.21,5.69-4.5,4.68-8.39-2-7.66-4.43-15.2-6.65-22.8a2.06,2.06,0,0,0-2.31-1.65c-9.84,0-19.67,0-29.5,0-1,0-1.83.23-2.15,1.39-1.46,5.33-3.14,10.6-4.36,16a69.82,69.82,0,0,0-1.09,9.93,4.35,4.35,0,0,0,3,4.57,55.93,55.93,0,0,0,8.24,2c1,.19,1.47.44,1.54,1.5.21,3,0,3.23-3,3.23-10.5,0-21,0-31.5,0-.81,0-1.87.36-2.08-1-.36-2.47-.07-3.59,1.49-3.81,5.19-.72,7.47-4.38,8.89-8.74,3.2-9.86,6.25-19.78,9.31-29.68s6.16-20,9.21-30.06q5.23-17.21,10.42-34.41c2.49-8.22,5-16.43,7.52-24.65.42-1.39,1.13-2.17,2.75-2a34.14,34.14,0,0,0,4.85,0c1.67-.11,2.39.77,2.83,2.21q1.89,6.24,3.87,12.46c2.67,8.39,5.4,16.77,8.06,25.16,2.07,6.54,4.05,13.11,6.11,19.65q5,15.72,10,31.41c2.95,9.3,5.88,18.61,8.92,27.87a35.45,35.45,0,0,0,2.83,6.25,9.24,9.24,0,0,0,6.53,4.52c1.66.35,2.69,3.11,1.61,4.36a2.9,2.9,0,0,1-2,.54C372.21,355.48,364.89,355.46,357.57,355.46Zm-35-91.35H322a6.93,6.93,0,0,0-.51,1.11q-2.52,8.32-5,16.65-3.17,10.56-6.32,21.13c-.33,1.08,0,1.62,1.15,1.62q11.06,0,22.1,0c1.07,0,1.6-.24,1.17-1.62-3.55-11.32-7-22.68-10.48-34C323.63,267.33,323.09,265.72,322.57,264.11Z" transform="translate(0 -118.35)"/><path class="cls-1" d="M252.74,287c0,16.31-.05,32.63.06,48.94a43,43,0,0,0,1.15,8.26,6.11,6.11,0,0,0,4.54,4.7,60.88,60.88,0,0,0,7.29,1.75c1.06.19,1.51.54,1.49,1.55,0,.34,0,.67,0,1,0,2.17-.1,2.28-2.23,2.29H216.45c-.9,0-2,.29-2.06-1.23,0-3-.13-3.33,1.69-3.59a54.9,54.9,0,0,0,6.83-1.56c3.2-.91,4.82-3.32,5.43-6.42a31.64,31.64,0,0,0,.65-6q.07-49.62,0-99.24c0-2.63-.06-2.8-2.61-2.55a66.87,66.87,0,0,0-11.05,1.59c-5.16,1.4-8,5.6-10.43,10.05s-3.25,9.59-4,14.61c-.29,1.87-.41,1.93-3.24,1.8-1.61-.07-1.39-1.12-1.38-2.11.17-11.62.36-23.24.48-34.86,0-1.58.52-2.17,2.12-2.16,8.72.05,17.44,0,26.16,0h57.16c2.92,0,2.93.12,2.94,3q.06,16.75.25,33.52c0,2.29-1.9,3.54-3.91,2.37-.43-.25-.66-1.1-.73-1.7A42.23,42.23,0,0,0,277,246.88c-3.39-7-8.65-11.24-16.61-11.69l-6-.34a1.3,1.3,0,0,0-1.56,1.49c0,1.51,0,3,0,4.53V287Z" transform="translate(0 -118.35)"/><path class="cls-1" d="M485.68,206.52c-.93.11-1.36.21-1.79.21-3.24,0-6.48-.07-9.72,0a3.11,3.11,0,0,1-3-1.66,159.18,159.18,0,0,0-25.83-30.65,165.67,165.67,0,0,0-49.56-31.94,163.51,163.51,0,0,0-34.62-10.16,167.8,167.8,0,0,0-62.92,1,165.08,165.08,0,0,0-61.53,26.52,161.3,161.3,0,0,0-32.65,30.12c-4,4.88-7.56,10.08-11.24,15.21a3.27,3.27,0,0,1-3,1.6c-3.13-.07-6.26,0-9.39,0-.54,0-1.07-.08-2.07-.16a172.73,172.73,0,0,1,34.55-42.48c33.47-29.77,72.72-45.25,117.48-45.71,43.08-.45,81.47,13.37,114.86,40.62A172.93,172.93,0,0,1,485.68,206.52Z" transform="translate(0 -118.35)"/></svg>